HIERARCHY
ROOT Hips
{
  OFFSET 5.84602e-005 68.8428 3.50346
  CHANNELS 6 Xposition Yposition Zposition Zrotation Xrotation Yrotation
  JOINT Spine
  {
    OFFSET 0 8.597 -4.6522
    CHANNELS 3 Zrotation Xrotation Yrotation
    JOINT Spine1
    {
      OFFSET 0 7.8454 0.4098
      CHANNELS 3 Zrotation Xrotation Yrotation
      JOINT Spine2
      {
        OFFSET 0 9.7078 -2.1609
        CHANNELS 3 Zrotation Xrotation Yrotation
        JOINT Neck
        {
          OFFSET 0 21.8761 -0.4549
          CHANNELS 3 Zrotation Xrotation Yrotation
          JOINT Head
          {
            OFFSET 0 12.3537 3.3602
            CHANNELS 3 Zrotation Xrotation Yrotation
            End Site
            {
              OFFSET 0.0001 18.9506 0.5657
            }
          }
        }
        JOINT LeftShoulder
        {
          OFFSET 2.2086 21.1115 7.2329
          CHANNELS 3 Zrotation Xrotation Yrotation
          JOINT LeftArm
          {
            OFFSET 13.1193 3.0282 -4.8998
            CHANNELS 3 Zrotation Xrotation Yrotation
            JOINT LeftForeArm
            {
              OFFSET 27.4081 -0.0973053 -0.2375
              CHANNELS 3 Zrotation Xrotation Yrotation
              JOINT LeftHand
              {
                OFFSET 22.8641 0.0662994 -0.1369
                CHANNELS 3 Zrotation Xrotation Yrotation
                JOINT LeftHandIndex1
                {
                  OFFSET 8.8614 0.775009 2.4612
                  CHANNELS 3 Zrotation Xrotation Yrotation
                  JOINT LeftHandIndex2
                  {
                    OFFSET 3.3146 -0.808304 0.5841
                    CHANNELS 3 Zrotation Xrotation Yrotation
                    JOINT LeftHandIndex3
                    {
                      OFFSET 2.2628 -0.552002 0.3989
                      CHANNELS 3 Zrotation Xrotation Yrotation
                      End Site
                      {
                        OFFSET 1.6102 -0.4807 0.2612
                      }
                    }
                  }
                }
                JOINT LeftHandMiddle1
                {
                  OFFSET 8.9937 0.895004 0.2143
                  CHANNELS 3 Zrotation Xrotation Yrotation
                  JOINT LeftHandMiddle2
                  {
                    OFFSET 4.0984 0.0113983 -0.0242
                    CHANNELS 3 Zrotation Xrotation Yrotation
                    JOINT LeftHandMiddle3
                    {
                      OFFSET 2.2716 0.00689697 -0.0138001
                      CHANNELS 3 Zrotation Xrotation Yrotation
                      End Site
                      {
                        OFFSET 2.0404 -0.1441 0.0027
                      }
                    }
                  }
                }
                JOINT LeftHandRing1
                {
                  OFFSET 8.5234 0.597198 -2.0164
                  CHANNELS 3 Zrotation Xrotation Yrotation
                  JOINT LeftHandRing2
                  {
                    OFFSET 3.7188 -0.188293 -0.2328
                    CHANNELS 3 Zrotation Xrotation Yrotation
                    JOINT LeftHandRing3
                    {
                      OFFSET 2.1191 -0.106598 -0.1332
                      CHANNELS 3 Zrotation Xrotation Yrotation
                      End Site
                      {
                        OFFSET 1.8737 -0.2304 -0.0886
                      }
                    }
                  }
                }
                JOINT LeftHandPinky1
                {
                  OFFSET 7.9094 -0.601089 -3.4825
                  CHANNELS 3 Zrotation Xrotation Yrotation
                  JOINT LeftHandPinky2
                  {
                    OFFSET 2.2874 -0.477005 -0.6314
                    CHANNELS 3 Zrotation Xrotation Yrotation
                    JOINT LeftHandPinky3
                    {
                      OFFSET 1.6774 -0.349396 -0.4633
                      CHANNELS 3 Zrotation Xrotation Yrotation
                      End Site
                      {
                        OFFSET 1.4888 -0.4091 -0.3416
                      }
                    }
                  }
                }
                JOINT LeftHandThumb1
                {
                  OFFSET 1.833 -1.3875 1.3896
                  CHANNELS 3 Zrotation Xrotation Yrotation
                  JOINT LeftHandThumb2
                  {
                    OFFSET 3.4129 -1.121 2.5732
                    CHANNELS 3 Zrotation Xrotation Yrotation
                    JOINT LeftHandThumb3
                    {
                      OFFSET 2.2474 -0.804199 1.6192
                      CHANNELS 3 Zrotation Xrotation Yrotation
                      End Site
                      {
                        OFFSET 1.6527 -0.5689 1.1317
                      }
                    }
                  }
                }
              }
            }
          }
        }
        JOINT RightShoulder
        {
          OFFSET -2.2086 21.1115 7.2329
          CHANNELS 3 Zrotation Xrotation Yrotation
          JOINT RightArm
          {
            OFFSET -13.1216 3.0287 -4.9007
            CHANNELS 3 Zrotation Xrotation Yrotation
            JOINT RightForeArm
            {
              OFFSET -27.4081 -0.0973053 -0.2375
              CHANNELS 3 Zrotation Xrotation Yrotation
              JOINT RightHand
              {
                OFFSET -22.8641 0.0664063 -0.1369
                CHANNELS 3 Zrotation Xrotation Yrotation
                JOINT RightHandIndex1
                {
                  OFFSET -8.8614 0.774994 2.4612
                  CHANNELS 3 Zrotation Xrotation Yrotation
                  JOINT RightHandIndex2
                  {
                    OFFSET -3.3146 -0.808304 0.5841
                    CHANNELS 3 Zrotation Xrotation Yrotation
                    JOINT RightHandIndex3
                    {
                      OFFSET -2.2628 -0.552002 0.3989
                      CHANNELS 3 Zrotation Xrotation Yrotation
                      End Site
                      {
                        OFFSET -1.6102 -0.4807 0.2612
                      }
                    }
                  }
                }
                JOINT RightHandMiddle1
                {
                  OFFSET -8.9937 0.894989 0.2143
                  CHANNELS 3 Zrotation Xrotation Yrotation
                  JOINT RightHandMiddle2
                  {
                    OFFSET -4.0984 0.0113983 -0.0242
                    CHANNELS 3 Zrotation Xrotation Yrotation
                    JOINT RightHandMiddle3
                    {
                      OFFSET -2.2716 0.00691223 -0.0138001
                      CHANNELS 3 Zrotation Xrotation Yrotation
                      End Site
                      {
                        OFFSET -2.0404 -0.1441 0.0027
                      }
                    }
                  }
                }
                JOINT RightHandRing1
                {
                  OFFSET -8.5234 0.597198 -2.0164
                  CHANNELS 3 Zrotation Xrotation Yrotation
                  JOINT RightHandRing2
                  {
                    OFFSET -3.7188 -0.188309 -0.2328
                    CHANNELS 3 Zrotation Xrotation Yrotation
                    JOINT RightHandRing3
                    {
                      OFFSET -2.1191 -0.106598 -0.1332
                      CHANNELS 3 Zrotation Xrotation Yrotation
                      End Site
                      {
                        OFFSET -1.8737 -0.2304 -0.0886
                      }
                    }
                  }
                }
                JOINT RightHandPinky1
                {
                  OFFSET -7.9094 -0.601105 -3.4825
                  CHANNELS 3 Zrotation Xrotation Yrotation
                  JOINT RightHandPinky2
                  {
                    OFFSET -2.2874 -0.477005 -0.6314
                    CHANNELS 3 Zrotation Xrotation Yrotation
                    JOINT RightHandPinky3
                    {
                      OFFSET -1.6774 -0.349396 -0.4633
                      CHANNELS 3 Zrotation Xrotation Yrotation
                      End Site
                      {
                        OFFSET -1.4888 -0.4091 -0.3416
                      }
                    }
                  }
                }
                JOINT RightHandThumb1
                {
                  OFFSET -1.833 -1.38751 1.3896
                  CHANNELS 3 Zrotation Xrotation Yrotation
                  JOINT RightHandThumb2
                  {
                    OFFSET -3.41299 -1.12099 2.5732
                    CHANNELS 3 Zrotation Xrotation Yrotation
                    JOINT RightHandThumb3
                    {
                      OFFSET -2.24741 -0.804108 1.6192
                      CHANNELS 3 Zrotation Xrotation Yrotation
                      End Site
                      {
                        OFFSET -1.6527 -0.5689 1.1317
                      }
                    }
                  }
                }
              }
            }
          }
        }
      }
    }
  }
  JOINT RightUpLeg
  {
    OFFSET -9.1966 3.8861 -0.7581
    CHANNELS 3 Zrotation Xrotation Yrotation
    JOINT RightLeg
    {
      OFFSET -0.7359 -41.0265 0
      CHANNELS 3 Zrotation Xrotation Yrotation
      JOINT RightFoot
      {
        OFFSET 0 -40.2855 0
        CHANNELS 3 Zrotation Xrotation Yrotation
        JOINT RightToeBase
        {
          OFFSET 0 -5.6122 11.7359
          CHANNELS 3 Zrotation Xrotation Yrotation
          End Site
          {
            OFFSET 0 0 7.8731
          }
        }
      }
    }
  }
  JOINT LeftUpLeg
  {
    OFFSET 9.1965 3.8864 -0.7581
    CHANNELS 3 Zrotation Xrotation Yrotation
    JOINT LeftLeg
    {
      OFFSET 0.7359 -41.0268 0
      CHANNELS 3 Zrotation Xrotation Yrotation
      JOINT LeftFoot
      {
        OFFSET 0 -40.2855 0
        CHANNELS 3 Zrotation Xrotation Yrotation
        JOINT LeftToeBase
        {
          OFFSET 0 -5.6122 11.7359
          CHANNELS 3 Zrotation Xrotation Yrotation
          End Site
          {
            OFFSET 0 0 7.8731
          }
        }
      }
    }
  }
}
MOTION
Frames:	4
Frame Time:	0.0333333
-6.93005 15.0845 40.0196 -180 84.0016 -180 -0.125581 -2.16171 -0.416651 -0.267189 -4.32246 -0.838943 -0.267189 -4.32245 -0.838944 -3.79735e-007 -35.9527 -9.72374e-006 7.89254e-007 -15.0017 1.22314e-007 -1.03112 -13.6507 -26.3156 6.93344 -1.13613 -20.1026 33.5543 -19.2441 -35.7322 14.6828 -10.7044 1.92278 -5.79803e-007 -6.15346e-007 -6.17964e-008 -1.19515e-006 -3.55438e-008 3.96341e-008 -5.79803e-007 -6.15346e-007 -6.17965e-008 -5.79803e-007 -6.15346e-007 -6.17964e-008 -0.0146529 -9.00424e-005 2.94688e-007 -1.1191e-007 -2.81495e-007 -3.2402e-007 -5.79803e-007 -6.15346e-007 -6.17964e-008 -0.0187955 -0.00117793 5.23471e-005 -1.12265e-007 -2.81575e-007 -3.24025e-007 -5.79803e-007 -6.15346e-007 -6.17964e-008 -0.0122554 -0.00324381 0.000665241 -5.79797e-007 -6.15334e-007 -6.18464e-008 -5.79803e-007 -6.15346e-007 -6.17964e-008 -1.19515e-006 -3.55438e-008 3.96341e-008 -5.79803e-007 -6.15346e-007 -6.17965e-008 6.67468 0.595596 -7.94153 108.688 14.1151 -41.9924 0.404179 -4.12501 39.4742 10.6751 -55.8919 28.4776 -2.91898e-007 2.78642e-007 -1.37778e-007 -6.36111e-015 1.25234e-014 1.59028e-015 -2.91898e-007 2.78642e-007 -1.37778e-007 -2.91898e-007 2.78642e-007 -1.37778e-007 0.0149838 -8.94185e-005 4.47633e-006 -2.91901e-007 2.78624e-007 -1.37814e-007 -2.91898e-007 2.78642e-007 -1.37778e-007 0.0189994 -0.00119243 -6.71227e-005 -2.91903e-007 2.7862e-007 -1.37821e-007 -2.91898e-007 2.78642e-007 -1.37778e-007 0.0123006 -0.00325599 -0.000672066 -2.91906e-007 2.78626e-007 -1.378e-007 -2.91898e-007 2.78642e-007 -1.37778e-007 -6.36111e-015 1.25234e-014 1.59028e-015 -2.91898e-007 2.78642e-007 -1.37778e-007 -98.3906 -34.7398 -106.289 -57.2088 80.4689 65.3223 -41.1743 28.426 66.3989 1.56964e-007 3.11258e-006 7.38364e-007 98.4125 -35.0329 106.042 57.069 80.503 -65.1957 40.7852 28.5952 -66.1469 1.07068e-006 4.33799e-008 3.65721e-007 
-6.93007 15.3267 39.9831 -180 83.2498 -180 -0.123498 -2.46811 -0.418287 -0.265416 -4.93522 -0.843079 -0.265417 -4.93522 -0.843079 -1.05307e-005 -35.5397 -1.07499e-005 -2.48719e-007 -15.0017 -5.75823e-008 -1.43844 -13.1771 -26.2446 6.93345 -1.1361 -20.1026 33.7264 -19.3606 -35.9715 14.2532 -10.4594 1.86428 -1.65521e-031 2.38542e-015 3.97569e-015 -9.37955e-032 1.68967e-015 3.18055e-015 -6.06912e-032 1.09332e-015 3.18055e-015 -1.65521e-031 2.38542e-015 3.97569e-015 -0.0146444 -8.90458e-005 -1.30405e-007 -2.20695e-032 -7.95139e-016 -1.59028e-015 -1.65521e-031 2.38542e-015 3.97569e-015 -0.0187211 -0.00117318 5.62268e-005 -3.18055e-015 -6.95746e-016 -7.95139e-016 -1.65521e-031 2.38542e-015 3.97569e-015 -0.0121199 -0.00320804 0.000664625 3.18055e-015 -2.18663e-015 1.59028e-015 -1.65521e-031 2.38542e-015 3.97569e-015 -9.37955e-032 1.68967e-015 3.18055e-015 -6.06912e-032 1.09332e-015 3.18055e-015 5.83663 1.42835 -8.19184 109.887 14.9497 -41.555 -0.473904 -3.24992 37.8447 9.91597 -55.7464 29.109 -5.76154e-007 5.59125e-007 -2.85805e-007 -8.6423e-007 8.38687e-007 -4.28707e-007 -1.44038e-006 1.39781e-006 -7.14512e-007 -5.76154e-007 5.59125e-007 -2.85805e-007 0.0149919 -9.16572e-005 -3.37051e-006 -1.4404e-006 1.39772e-006 -7.14694e-007 -5.76154e-007 5.59125e-007 -2.85805e-007 0.0190433 -0.00119283 -5.11018e-005 -1.44041e-006 1.39769e-006 -7.1473e-007 -5.76154e-007 5.59125e-007 -2.85805e-007 0.0122297 -0.00323666 -0.000673876 -1.44043e-006 1.39773e-006 -7.1462e-007 -5.76154e-007 5.59125e-007 -2.85805e-007 -8.6423e-007 8.38687e-007 -4.28707e-007 -1.44038e-006 1.39781e-006 -7.14512e-007 -99.0742 -35.4086 -106.676 -57.2984 80.4783 65.4122 -40.2714 29.0145 65.7385 -6.34506e-007 -1.13577e-006 2.3383e-008 99.0971 -35.679 106.45 57.1586 80.5124 -65.2854 39.9107 29.1684 -65.5051 1.21149e-007 2.30479e-008 2.95439e-007 
-6.93009 15.5693 39.948 -180 82.4982 -180 -0.121408 -2.77395 -0.419849 -0.263655 -5.54691 -0.847082 -0.263655 -5.54691 -0.847081 -4.15372e-006 -35.1268 -1.18963e-006 2.89319e-007 -15.0017 2.48342e-008 -1.84553 -12.704 -26.1702 6.93344 -1.13612 -20.1026 33.8981 -19.4777 -36.2105 13.8242 -10.214 1.8077 6.36111e-015 0 -0 6.36111e-015 -7.95139e-016 -3.97569e-016 6.36111e-015 -9.93923e-017 -0 6.36111e-015 0 -0 -0.0146531 -8.71161e-005 -1.38566e-005 -3.18055e-015 2.38542e-015 -3.97569e-016 6.36111e-015 0 -0 -0.0186765 -0.00117179 6.64029e-005 9.54166e-015 2.98177e-016 -3.97569e-016 6.36111e-015 0 -0 -0.0124097 -0.00328598 0.000681654 4.76734e-007 3.50275e-007 -2.4527e-007 6.36111e-015 0 -0 6.36111e-015 -7.95139e-016 -3.97569e-016 6.36111e-015 -9.93923e-017 -0 5.00228 2.26424 -8.42992 111.082 15.7922 -41.1344 -1.32488 -2.35165 36.2324 9.1573 -55.6057 29.741 5.68069e-007 -5.60829e-007 2.96197e-007 1.32669e-006 -1.0814e-006 5.78782e-007 5.68069e-007 -5.60829e-007 2.96197e-007 5.68069e-007 -5.60829e-007 2.96197e-007 0.0150002 -9.35978e-005 -1.92834e-006 5.68077e-007 -5.6079e-007 2.9627e-007 5.68069e-007 -5.60829e-007 2.96197e-007 0.019043 -0.00119207 -5.3772e-005 3.75825e-007 -6.00924e-007 3.0991e-007 5.68069e-007 -5.60829e-007 2.96197e-007 0.012246 -0.00324433 -0.000681569 3.7644e-007 -6.00757e-007 3.09924e-007 5.68069e-007 -5.60829e-007 2.96197e-007 1.32669e-006 -1.0814e-006 5.78782e-007 5.68069e-007 -5.60829e-007 2.96197e-007 -99.7695 -36.0735 -107.075 -57.3876 80.4876 65.5023 -39.3555 29.5939 65.0637 -2.82134e-007 5.34425e-008 -6.89614e-007 99.7934 -36.3209 106.87 57.2485 80.5218 -65.376 39.0237 29.7331 -64.8497 1.03366e-007 -1.08145e-006 9.18011e-007 
-6.93012 15.8122 39.9143 -180 81.7467 -180 -0.119312 -3.07899 -0.421334 -0.261902 -6.15703 -0.850946 -0.261902 -6.15702 -0.850946 -4.11324e-006 -34.714 -4.232e-007 -1.32243e-007 -15.0017 4.03018e-007 -2.25242 -12.2316 -26.0926 6.93344 -1.13611 -20.1026 34.0694 -19.5956 -36.4494 13.3958 -9.96814 1.75305 4.81822e-007 3.58457e-007 -2.37019e-007 3.18055e-015 3.77691e-015 -0 -2.13799e-032 3.08116e-015 3.97569e-016 4.81822e-007 3.58457e-007 -2.37019e-007 -0.014585 -8.74818e-005 -5.55952e-006 6.89673e-033 -9.93923e-016 3.97569e-016 4.81822e-007 3.58457e-007 -2.37019e-007 -0.0186987 -0.00117323 6.40697e-005 -1.10348e-032 3.97569e-016 1.59028e-015 4.81822e-007 3.58457e-007 -2.37019e-007 -0.012249 -0.00324217 0.000671966 -1.01658e-030 1.33186e-014 4.37326e-015 4.81822e-007 3.58457e-007 -2.37019e-007 3.18055e-015 3.77691e-015 -0 -2.13799e-032 3.08116e-015 3.97569e-016 4.17146 3.10283 -8.6558 112.274 16.6419 -40.7309 -2.14813 -1.43181 34.6377 8.39933 -55.4699 30.3735 -6.36111e-015 3.57812e-015 -5.56597e-015 -5.59553e-007 5.62389e-007 -3.06709e-007 3.18055e-015 4.37326e-015 2.38542e-015 -6.36111e-015 3.57812e-015 -5.56597e-015 0.0150084 -9.02941e-005 -2.74854e-006 1.72907e-007 2.45171e-007 3.33126e-008 -6.36111e-015 3.57812e-015 -5.56597e-015 0.0190334 -0.00118923 -5.64372e-005 3.18055e-015 6.36111e-015 -7.95139e-016 -6.36111e-015 3.57812e-015 -5.56597e-015 0.0123405 -0.0032622 -0.000681276 3.31043e-032 -2.38542e-015 7.95139e-016 -6.36111e-015 3.57812e-015 -5.56597e-015 -5.59553e-007 5.62389e-007 -3.06709e-007 3.18055e-015 4.37326e-015 2.38542e-015 -100.477 -36.7341 -107.488 -57.4772 80.497 65.5933 -38.4263 30.1638 64.3744 9.65208e-007 2.00698e-006 -2.15093e-007 100.502 -36.9583 107.304 57.3386 80.5313 -65.4673 38.1242 30.2888 -64.1807 -4.02789e-008 -7.62581e-009 -9.85299e-008 
